<svg width="62" height="44" viewBox="0 0 62 44" fill="none" xmlns="http://www.w3.org/2000/svg">
    <path fill-rule="evenodd" clip-rule="evenodd"
        d="M2.45703 37V38C2.45703 38.5523 2.90475 39 3.45703 39H37.4684C39.9435 42.0505 43.7226 44 47.957 44C55.4129 44 61.457 37.9558 61.457 30.5C61.457 24.622 57.7004 19.6214 52.457 17.7682V5V4C52.457 3.44772 52.0093 3 51.457 3H50.457V5V17.231C49.6469 17.0793 48.8112 17 47.957 17C40.5012 17 34.457 23.0442 34.457 30.5C34.457 32.8564 35.0608 35.0718 36.122 37H2.45703Z"
        fill="#E7EAF2"></path>
    <path style="fill:var(--color_hex_primary)" fill-rule="evenodd" clip-rule="evenodd"
        d="M49.4098 0.829102H32.9032H20.0748H1.50444C0.675 0.829102 0 1.53876 0 2.41038V35.6285C0 36.5001 0.675 37.2098 1.50444 37.2098H49.4098C50.2393 37.2098 50.9143 36.5001 50.9143 35.6285V2.41038C50.9143 1.53876 50.2393 0.829102 49.4098 0.829102ZM1.50444 2.37196L1.54286 35.6285L49.4098 35.6669L49.3714 2.41038L32.9032 2.37365L20.0748 2.37196H1.50444Z">
    </path>
    <path style="fill:var(--color_hex_primary)"
        d="M22.5319 9.77881H5.88178C5.45576 9.77881 5.11035 10.1238 5.11035 10.5502V27.4885C5.11035 27.9149 5.45576 28.26 5.88178 28.26H9.20894H19.2047H22.5319C22.9579 28.26 23.3033 27.9149 23.3033 27.4885V10.5502C23.3033 10.1238 22.9579 9.77881 22.5319 9.77881ZM9.98037 26.7171V24.1444C9.98037 23.3059 10.6087 22.6121 11.42 22.5059C13.2484 23.6962 15.1653 23.6969 16.9937 22.5059C17.805 22.6121 18.4333 23.3059 18.4333 24.1444V26.7171H9.98037ZM21.7605 26.7171H19.9762V24.1444C19.9762 22.3823 18.541 20.9487 16.7771 20.9487C16.6174 20.9487 16.4614 20.9984 16.3307 21.0911C14.8813 22.1187 13.5317 22.1187 12.083 21.0911C11.9526 20.9984 11.7967 20.9487 11.6366 20.9487C9.87264 20.9487 8.43751 22.3823 8.43751 24.1444V26.7171H6.65321V11.3217H21.7605V26.7171Z">
    </path>
    <path style="fill:var(--color_hex_primary)"
        d="M14.2066 21.1562C16.1759 21.1562 17.7779 19.5538 17.7779 17.5845C17.7779 15.6153 16.1759 14.0137 14.2066 14.0137C12.2377 14.0137 10.6357 15.6153 10.6357 17.5845C10.6357 19.5538 12.2377 21.1562 14.2066 21.1562ZM14.2066 15.5565C15.325 15.5565 16.235 16.4666 16.235 17.5845C16.235 18.7033 15.325 19.6133 14.2066 19.6133C13.0883 19.6133 12.1786 18.7033 12.1786 17.5845C12.1786 16.4666 13.0883 15.5565 14.2066 15.5565Z">
    </path>
    <path style="fill:var(--color_hex_primary)"
        d="M45.0324 10.4058H28.5751C28.1491 10.4058 27.8037 10.7508 27.8037 11.1772C27.8037 11.6036 28.1491 11.9486 28.5751 11.9486H45.0324C45.4584 11.9486 45.8038 11.6036 45.8038 11.1772C45.8038 10.7508 45.4584 10.4058 45.0324 10.4058Z">
    </path>
    <path style="fill:var(--color_hex_primary)"
        d="M45.0324 16.248H28.5751C28.1491 16.248 27.8037 16.5931 27.8037 17.0195C27.8037 17.4459 28.1491 17.7909 28.5751 17.7909H45.0324C45.4584 17.7909 45.8038 17.4459 45.8038 17.0195C45.8038 16.5931 45.4584 16.248 45.0324 16.248Z">
    </path>
    <path style="fill:var(--color_hex_primary)"
        d="M45.0324 22.0903H28.5751C28.1491 22.0903 27.8037 22.4354 27.8037 22.8618C27.8037 23.2882 28.1491 23.6332 28.5751 23.6332H45.0324C45.4584 23.6332 45.8038 23.2882 45.8038 22.8618C45.8038 22.4354 45.4584 22.0903 45.0324 22.0903Z">
    </path>
    <circle cx="45.957" cy="28.5" r="13.5" fill="white"></circle>
    <path style="fill:var(--color_hex_secondary)" fill-rule="evenodd" clip-rule="evenodd"
        d="M45.957 42C53.4129 42 59.457 35.9558 59.457 28.5C59.457 21.0442 53.4129 15 45.957 15C38.5012 15 32.457 21.0442 32.457 28.5C32.457 35.9558 38.5012 42 45.957 42ZM45.957 40C52.3083 40 57.457 34.8513 57.457 28.5C57.457 22.1487 52.3083 17 45.957 17C39.6058 17 34.457 22.1487 34.457 28.5C34.457 34.8513 39.6058 40 45.957 40Z">
    </path>
    <path style="stroke:var(--color_hex_secondary)" d="M46.457 19V28.5H53.957" stroke-width="2" stroke-linecap="round"
        stroke-linejoin="round"></path>
</svg>