<svg width="62" height="44" viewBox="0 0 62 44" fill="none" xmlns="http://www.w3.org/2000/svg">
    <path fill-rule="evenodd" clip-rule="evenodd"
        d="M2.45679 36.1709V37.1709C2.45679 37.7232 2.9045 38.1709 3.45679 38.1709H37.4681C39.9433 41.2214 43.7224 43.1709 47.9568 43.1709C55.4126 43.1709 61.4568 37.1267 61.4568 29.6709C61.4568 23.7929 57.7002 18.7923 52.4568 16.9391V4.1709V3.1709C52.4568 2.61861 52.0091 2.1709 51.4568 2.1709H50.4568V4.1709V16.4019C49.6466 16.2502 48.811 16.1709 47.9568 16.1709C40.5009 16.1709 34.4568 22.2151 34.4568 29.6709C34.4568 32.0273 35.0605 34.2427 36.1218 36.1709H2.45679Z"
        fill="#E7EAF2"></path>
    <path style="fill:var(--color_hex_primary)" fill-rule="evenodd" clip-rule="evenodd"
        d="M49.4098 0H32.9032H20.0748H1.50444C0.675 0 0 0.709654 0 1.58128V34.7994C0 35.671 0.675 36.3807 1.50444 36.3807H49.4098C50.2393 36.3807 50.9143 35.671 50.9143 34.7994V1.58128C50.9143 0.709654 50.2393 0 49.4098 0ZM1.50444 1.54286L1.54286 34.7994L49.4098 34.8378L49.3714 1.58128L32.9032 1.54455L20.0748 1.54286H1.50444Z">
    </path>
    <path style="fill:var(--color_hex_primary)" fill-rule="evenodd" clip-rule="evenodd"
        d="M25.4871 20.5926L0.997314 1.59261L1.91679 0.407471L25.9373 19.0434L48.9856 0.41672L49.9285 1.58337L26.4183 20.5834C26.1476 20.8021 25.7621 20.8059 25.4871 20.5926Z">
    </path>
    <path style="fill:var(--color_hex_primary)" fill-rule="evenodd" clip-rule="evenodd"
        d="M0.997547 34.4073L22.9277 17.4073L23.8467 18.5928L1.91655 35.5928L0.997547 34.4073ZM28.9115 17.4169L49.9287 34.4169L48.9854 35.5831L27.9682 18.5831L28.9115 17.4169Z">
    </path>
    <circle cx="45.9568" cy="27.6709" r="13.5" fill="white"></circle>
    <path style="fill:var(--color_hex_secondary)" fill-rule="evenodd" clip-rule="evenodd"
        d="M45.9568 41.1709C53.4126 41.1709 59.4568 35.1267 59.4568 27.6709C59.4568 20.2151 53.4126 14.1709 45.9568 14.1709C38.5009 14.1709 32.4568 20.2151 32.4568 27.6709C32.4568 35.1267 38.5009 41.1709 45.9568 41.1709ZM45.9568 39.1709C52.3081 39.1709 57.4568 34.0222 57.4568 27.6709C57.4568 21.3196 52.3081 16.1709 45.9568 16.1709C39.6055 16.1709 34.4568 21.3196 34.4568 27.6709C34.4568 34.0222 39.6055 39.1709 45.9568 39.1709Z">
    </path>
    <path style="stroke:var(--color_hex_secondary)" d="M46.457 18V27.5H53.957" stroke-width="2" stroke-linecap="round"
        stroke-linejoin="round"></path>
</svg>