<svg width="132" height="68" viewBox="0 0 132 68" fill="none" xmlns="http://www.w3.org/2000/svg">
    <path
        d="M43.1818 66.5728C43.1818 68.0171 40.9858 68.0171 40.9858 66.5728V57.1821C40.9858 48.7798 49.615 45.3793 56.2711 42.5876C57.076 42.25 56.9138 42.4088 57.0135 41.527L57.3208 38.8111C57.4784 37.4187 57.5556 37.8548 56.8008 36.7332C55.9006 35.3956 55.1683 33.8249 54.7707 32.0442C54.5756 31.1704 53.6415 31.1602 52.9417 30.3617C51.9684 29.2511 51.2536 27.3941 50.9352 25.5146C50.6045 23.5626 50.5432 20.5045 52.1651 19.0829C53.0234 18.5515 53.1309 18.2862 52.9744 17.229C52.588 14.6178 52.3037 11.5804 52.7931 8.90751C53.3509 5.89584 54.8942 3.49361 58.1255 2.42766C59.1128 2.10195 58.9861 2.14669 59.846 1.5947C61.9893 0.219103 64.947 -0.131713 67.3852 0.04053C76.6508 0.695016 81.6713 6.8773 80.7271 15.9137C80.5784 17.338 80.2287 18.4175 81.3813 19.0829C82.12 19.7303 82.5464 20.7701 82.7141 21.9831C83.0677 24.5397 82.3079 28.4184 80.6047 30.3617C79.9049 31.1602 78.9708 31.1704 78.7757 32.0442C78.4145 33.6617 77.7959 35.0968 77.0126 36.3486C75.993 37.9779 76.0479 37.2765 76.2185 39.2898L76.3427 40.7557C76.4919 42.5171 76.2065 42.1478 77.8208 42.8362C84.5103 45.6888 92.4225 48.9308 92.4225 57.3652V66.5728C92.4225 68.0171 90.2265 68.0171 90.2265 66.5728V57.3652C90.2265 54.859 89.4006 52.8957 87.916 51.2882C85.4901 48.6616 81.4509 46.7695 77.2241 44.9601C75.4682 44.2085 75.9305 44.0809 74.5551 45.3565L68.9345 50.5695C67.5351 51.8674 67.7632 51.4386 67.7632 53.3573V66.6822C67.7632 68.1265 65.5672 68.1265 65.5672 66.6822V53.1743C65.5672 51.4134 65.749 51.8244 64.4584 50.6274L58.7697 45.3513C57.3707 44.0537 57.7978 44.267 55.9715 45.0513C51.6282 46.9165 47.509 48.881 45.1682 51.6554C43.8078 53.2678 43.1818 55.1508 43.1818 57.2736V66.5728ZM103.247 25.838C101.994 26.5432 100.922 24.6389 102.175 23.9337C102.788 23.587 103.082 22.9838 103.138 22.299C103.215 21.322 104.43 20.9409 105.06 21.665C107.016 23.651 114.345 19.6488 117.794 23.5828C118.741 24.6646 117.094 26.1057 116.147 25.0239C114.3 22.9174 108.674 24.7673 105.69 24.3178C104.794 24.1829 104.875 24.325 104.316 24.9677C103.984 25.3495 103.608 25.634 103.247 25.838ZM104.323 17.5234C104.27 18.6563 102.902 18.8333 102.356 18.1545C101.934 17.6302 102.435 16.5775 101.393 18.1742C100.978 18.8105 100.718 19.5665 100.568 20.3847C100.145 22.6926 100.53 25.5222 100.899 27.7623C101.225 29.8799 99.2182 29.2457 98.9405 31.2546C98.725 32.8127 99.194 35.4965 100.227 36.6753C100.99 37.5458 101.748 36.9098 102.209 38.9759C102.654 40.9659 103.693 42.7171 105.203 44.0659C108.578 47.0808 112.083 47.0649 115.432 44.032C116.915 42.6896 117.96 40.9405 118.398 38.9759C118.86 36.9098 119.617 37.5458 120.38 36.6753C121.413 35.4964 121.882 32.8127 121.667 31.2546C121.42 29.4716 121.065 30.3509 120.272 29.5801C119.163 28.5022 120.113 25.2347 120.113 23.5249C120.113 19.2542 117.456 16.6281 114.305 15.4068C112.728 14.7956 110.848 14.4778 109.076 14.5924C107.338 14.7048 104.427 15.4232 104.323 17.5234ZM98.4146 19.9901C98.8908 17.3895 100.216 15.3486 103.005 14.3907C105.453 13.5498 105.821 12.5515 108.855 12.3499C110.864 12.2164 113.219 12.6384 115.094 13.3652C119.009 14.8823 122.309 18.165 122.309 23.5249C122.309 25.182 121.4 27.7467 122.661 28.4151C123.315 28.9881 123.691 29.8978 123.837 30.9544C124.141 33.1481 123.489 36.4485 122.027 38.1164C121.488 38.7314 120.668 38.8503 120.534 39.4477C120.203 40.9305 119.618 42.2332 118.877 43.3546C118.249 44.3049 118.313 43.9429 118.398 45.1199L118.55 47.2266C118.629 48.3276 118.446 48.1047 119.451 48.5321C125.826 51.2442 131.578 53.5354 132 60.3728V66.5904C132 68.0347 129.804 68.0347 129.804 66.5904V60.3728C129.804 59.0992 129.35 57.4159 127.766 55.8324C125.755 53.8213 122.614 52.2725 119.267 50.8326C117.617 50.1229 118.049 50.007 116.757 51.2055L112.181 55.4492C111.147 56.4087 111.317 56.0927 111.317 57.5115V66.6822C111.317 68.1265 109.121 68.1265 109.121 66.6822V57.4932C109.121 56.1744 109.313 56.4296 108.36 55.5457L103.414 50.9588C102.563 50.1689 102.849 50.1436 101.813 50.5856C101.105 50.8877 100.382 51.2009 99.6142 51.5477C98.2996 52.14 97.399 50.1413 98.7135 49.549C99.4348 49.2232 100.244 48.8752 101.078 48.521C101.933 48.1576 101.77 48.234 101.806 47.3347L101.908 44.757C101.961 43.4343 101.983 43.8542 101.349 42.7483C100.79 41.773 100.347 40.6731 100.073 39.4477C99.9398 38.8503 99.1193 38.7314 98.5802 38.1164C97.1184 36.4486 96.4668 33.1481 96.7702 30.9544C96.8904 30.0854 97.0477 28.9856 97.8014 28.5504C98.8397 27.9509 98.6832 27.8539 98.5249 26.7414C98.2207 24.6039 98.0174 22.1597 98.4146 19.9901ZM115.481 46.766C112.005 49.1334 108.431 49.0847 105.007 46.692C103.92 45.9327 104.089 45.6626 104.032 47.098L104.007 47.7213C103.968 48.7075 103.95 48.4673 104.689 49.1525L108.857 53.0184C110.174 54.2395 110.1 54.3905 111.501 53.1023L115.696 49.2481C116.484 48.5236 116.47 48.782 116.394 47.7387L116.363 47.2979C116.278 46.1181 116.49 46.0784 115.481 46.766ZM40.6754 46.7271C41.8263 47.5903 40.5138 49.3403 39.3629 48.4771C35.0775 45.2529 36.4038 34.3792 36.5112 29.171C36.6911 20.4529 30.4627 14.2016 21.907 14.0251C17.2895 13.9299 15.6053 15.722 11.9466 17.6772C6.717 20.472 6.86933 28.4654 7.00814 35.7488C7.12704 41.9868 7.23682 47.7484 4.01905 50.2577C2.88647 51.1424 1.53969 49.4182 2.67227 48.5335C5.02868 46.6959 4.92884 41.4561 4.82071 35.7831C4.6698 27.8646 4.50417 19.1743 10.9172 15.7471C14.993 13.569 16.7835 11.7311 21.9499 11.8377C31.7062 12.0389 38.9036 19.2795 38.6987 29.2139C38.6103 33.5 37.4567 44.3056 40.6754 46.7271ZM10.3592 26.1203C10.393 24.6818 12.5804 24.7331 12.5466 26.1718L12.455 28.6959C12.4039 30.6954 11.1949 29.8657 11.1334 31.9617C11.1034 32.9835 11.4615 36.0649 12.0893 36.6927C13.0563 37.6597 13.3281 37.0755 13.7524 38.9759C14.2394 41.1568 15.3869 42.8515 16.7464 44.0659C20.1215 47.0808 23.6267 47.0649 26.9756 44.032C28.3208 42.8139 29.4615 41.1259 29.9415 38.9759C30.4825 36.5532 31.535 37.5057 32.1022 35.3887C32.3827 34.3419 32.5395 33.7282 32.5339 32.5527C32.5227 30.2125 31.2227 30.2949 31.239 28.6616L31.2765 26.1405C31.2878 24.7018 33.4752 24.719 33.4639 26.1576L33.4345 27.1336C33.4286 27.726 33.4463 28.6168 33.8179 29.0138C34.4347 29.6306 34.714 31.0067 34.7213 32.5441C34.7278 33.911 34.5461 34.7416 34.221 35.9549C33.9624 36.9201 33.694 37.5686 33.1246 38.1531C32.5524 38.7405 32.2703 38.5842 32.0775 39.4477C31.6503 41.3608 30.8 42.974 29.7383 44.2849L30.0767 47.437C30.1811 48.4091 30.0982 48.1704 31.0267 48.5654C31.8233 48.9042 32.5954 49.2369 33.2865 49.549C34.6009 50.1413 33.7003 52.14 32.3858 51.5477C31.794 51.2804 31.2288 51.033 30.6764 50.7953C29.1317 50.1305 29.5518 50.0629 28.3242 51.2014L24.012 55.2008C22.6341 56.4788 22.8795 56.0729 22.8795 57.9689V66.6822C22.8795 68.1265 20.6834 68.1265 20.6834 66.6822V57.9323C20.6834 56.2053 20.8087 56.3675 19.5323 55.1836L15.202 51.1673C14.1901 50.2289 14.3103 50.1574 13.0051 50.7159C9.43612 52.2433 6.13709 53.9438 4.0223 56.0586C2.74686 57.334 2.24677 58.5034 2.19283 60.3728L2.19602 66.5904C2.19602 68.0347 0 68.0347 0 66.5904V60.3728C0.311577 53.8692 6.16828 51.2301 12.3881 48.5991C13.6831 48.0512 13.4104 48.2979 13.6063 46.8754L13.7794 45.6189C14.0255 43.8334 13.9419 44.4815 13.0452 43.0076C12.4136 41.9692 11.9146 40.783 11.6165 39.4477C11.4381 38.6488 11.137 38.8457 10.5367 38.2453C9.35271 37.0614 8.89528 33.6292 8.94593 31.9016C9.01719 29.4735 10.2586 28.9969 10.2903 27.7546L10.3592 26.1203ZM10.0319 65.5077L10.0438 66.5904C10.0438 68.0347 7.84774 68.0347 7.84774 66.5904L7.84143 65.528C7.81912 64.1125 10.0728 63.9865 10.0319 65.5077ZM26.9188 46.8296C23.4053 49.1279 20.175 49.0821 16.674 46.7641C15.7891 46.1783 15.9424 45.9638 15.7911 47.0619L15.6901 47.7951C15.5573 48.7591 15.8529 48.7825 16.589 49.4652L20.3252 52.9305C22.1065 54.5826 21.5332 54.5114 23.354 52.8227L27.0654 49.3804C27.815 48.6852 28.0029 48.647 27.8929 47.6226L27.8399 47.1283C27.7149 45.964 27.8598 46.2139 26.9188 46.8296ZM14.2421 21.5041C13.2604 20.4491 14.8646 18.9565 15.8462 20.0115C18.0802 22.4124 26.4064 17.8031 30.2663 22.2058C31.2129 23.2877 29.5659 24.7288 28.6193 23.6469C25.7115 20.3302 17.6047 25.118 14.2421 21.5041ZM52.7866 63.9165V66.5728C52.7866 68.0171 50.5906 68.0171 50.5906 66.5728V63.8068C50.5544 62.4934 52.8049 62.5409 52.7866 63.9165ZM58.2328 14.6517C56.9803 15.3569 55.9081 13.4525 57.1606 12.7473C57.9575 12.297 58.3489 11.5152 58.4212 10.6235C58.4979 9.64603 59.7144 9.26528 60.3435 9.99033C62.7903 12.5086 71.5219 7.66728 75.568 12.2825C76.5146 13.3644 74.8677 14.8054 73.9211 13.7236C71.5298 10.996 65.0231 13.4413 61.4333 12.8319C59.8494 12.5631 60.3353 12.7519 59.5743 13.513C59.1129 13.9744 58.6894 14.3937 58.2328 14.6517ZM60.5452 37.7588C64.654 41.429 68.9581 41.4101 73.0355 37.7176C74.8367 36.0864 76.1067 33.9594 76.6397 31.5724C77.1633 29.2275 78.0566 29.9487 78.9577 28.9206C80.2324 27.4663 80.8095 24.2043 80.5438 22.2833C80.0462 19.8645 77.7971 20.664 78.2059 18.1787C78.3355 17.3911 78.4583 16.5518 78.5483 15.6907C79.3599 7.92145 75.2379 2.79362 67.2308 2.22796C64.6923 2.04864 59.5866 2.64157 59.4246 5.91564C59.3569 7.35423 57.1695 7.25142 57.2371 5.81272C57.2724 5.09938 57.3791 5.0224 56.6704 5.71337C55.7287 6.63152 55.2043 7.89231 54.9462 9.30209C54.4358 12.0896 54.898 15.4889 55.3405 18.1787C55.4766 19.0063 55.2788 20.0439 54.4774 20.3527C52.801 20.9984 52.6652 22.6057 53.0969 25.1543C53.3538 26.6712 53.8877 28.1207 54.5887 28.9206C55.4898 29.9487 56.3831 29.2275 56.9067 31.5724C57.4461 33.988 58.7132 36.1224 60.5452 37.7588ZM59.2769 40.5819L59.1692 41.5336C59.0298 42.7655 59.1548 42.7199 60.3071 43.7887L65.8405 48.9208C66.8097 49.8197 66.5008 49.8382 67.4596 48.9489L73.5936 43.2598C74.5437 42.3786 74.2951 42.5862 74.1862 41.3014C74.0118 39.2432 74.2699 39.6949 72.7005 40.7433C68.5989 43.4834 64.3146 43.3325 60.2469 40.3292C59.2752 39.6118 59.4161 39.3513 59.2769 40.5819Z"
        style="fill: var(--color_hex_primary);"></path>
    <path
        d="M40 60.9551C40 64.8211 36.866 67.9551 33 67.9551C29.134 67.9551 26 64.8211 26 60.9551C26 57.0891 29.134 53.9551 33 53.9551C36.866 53.9551 40 57.0891 40 60.9551Z"
        fill="white"></path>
    <path fill-rule="evenodd" clip-rule="evenodd"
        d="M33 65.9551C35.7614 65.9551 38 63.7165 38 60.9551C38 58.1937 35.7614 55.9551 33 55.9551C30.2386 55.9551 28 58.1937 28 60.9551C28 63.7165 30.2386 65.9551 33 65.9551ZM33 67.9551C36.866 67.9551 40 64.8211 40 60.9551C40 57.0891 36.866 53.9551 33 53.9551C29.134 53.9551 26 57.0891 26 60.9551C26 64.8211 29.134 67.9551 33 67.9551Z"
        style="fill: var(--color_hex_secondary);"></path>
    <path fill-rule="evenodd" clip-rule="evenodd"
        d="M36.0573 58.0459C36.4559 58.3192 36.5574 58.8638 36.2841 59.2624L33.2841 63.6374C33.1382 63.8501 32.9059 63.9877 32.6492 64.0132C32.3924 64.0388 32.1375 63.9497 31.9526 63.7699L29.7026 61.5824C29.3561 61.2455 29.3483 60.6916 29.6851 60.3451C30.022 59.9986 30.576 59.9908 30.9224 60.3277L32.428 61.7914L34.8409 58.2727C35.1142 57.8742 35.6588 57.7726 36.0573 58.0459Z"
        style="fill: var(--color_hex_secondary);"></path>
    <path
        d="M86 60.9551C86 64.8211 82.866 67.9551 79 67.9551C75.134 67.9551 72 64.8211 72 60.9551C72 57.0891 75.134 53.9551 79 53.9551C82.866 53.9551 86 57.0891 86 60.9551Z"
        fill="white"></path>
    <path fill-rule="evenodd" clip-rule="evenodd"
        d="M79 65.9551C81.7614 65.9551 84 63.7165 84 60.9551C84 58.1937 81.7614 55.9551 79 55.9551C76.2386 55.9551 74 58.1937 74 60.9551C74 63.7165 76.2386 65.9551 79 65.9551ZM79 67.9551C82.866 67.9551 86 64.8211 86 60.9551C86 57.0891 82.866 53.9551 79 53.9551C75.134 53.9551 72 57.0891 72 60.9551C72 64.8211 75.134 67.9551 79 67.9551Z"
        style="fill: var(--color_hex_secondary);"></path>
    <path fill-rule="evenodd" clip-rule="evenodd"
        d="M82.0573 58.0459C82.4559 58.3192 82.5574 58.8638 82.2841 59.2624L79.2841 63.6374C79.1382 63.8501 78.9059 63.9877 78.6492 64.0132C78.3924 64.0388 78.1375 63.9497 77.9526 63.7699L75.7026 61.5824C75.3561 61.2455 75.3483 60.6916 75.6851 60.3451C76.022 59.9986 76.576 59.9908 76.9224 60.3277L78.428 61.7914L80.8409 58.2727C81.1142 57.8742 81.6588 57.7726 82.0573 58.0459Z"
        style="fill: var(--color_hex_secondary);"></path>
    <path
        d="M127 60.9551C127 64.8211 123.866 67.9551 120 67.9551C116.134 67.9551 113 64.8211 113 60.9551C113 57.0891 116.134 53.9551 120 53.9551C123.866 53.9551 127 57.0891 127 60.9551Z"
        fill="white"></path>
    <path fill-rule="evenodd" clip-rule="evenodd"
        d="M120 65.9551C122.761 65.9551 125 63.7165 125 60.9551C125 58.1937 122.761 55.9551 120 55.9551C117.239 55.9551 115 58.1937 115 60.9551C115 63.7165 117.239 65.9551 120 65.9551ZM120 67.9551C123.866 67.9551 127 64.8211 127 60.9551C127 57.0891 123.866 53.9551 120 53.9551C116.134 53.9551 113 57.0891 113 60.9551C113 64.8211 116.134 67.9551 120 67.9551Z"
        style="fill: var(--color_hex_secondary);"></path>
    <path fill-rule="evenodd" clip-rule="evenodd"
        d="M123.057 58.0459C123.456 58.3192 123.557 58.8638 123.284 59.2624L120.284 63.6374C120.138 63.8501 119.906 63.9877 119.649 64.0132C119.392 64.0388 119.138 63.9497 118.953 63.7699L116.703 61.5824C116.356 61.2455 116.348 60.6916 116.685 60.3451C117.022 59.9986 117.576 59.9908 117.922 60.3277L119.428 61.7914L121.841 58.2727C122.114 57.8742 122.659 57.7726 123.057 58.0459Z"
        style="fill: var(--color_hex_secondary);"></path>
</svg>