<svg width="64" height="64" viewBox="0 0 64 64" fill="none" class="">
    <path fill-rule="evenodd" clip-rule="evenodd"
        d="M54 45.0702C56.3912 46.4535 58 49.0389 58 52C58 56.4183 54.4183 60 50 60C46.2723 60 43.1401 57.4505 42.252 54H10.4706C9.10612 54 8 52.8939 8 51.5294H42.0136C42.2572 47.3302 45.7397 44 50 44C50.6906 44 51.3608 44.0875 52 44.252V39H54.5C55.6046 39 56.5 38.1045 56.5 37V14C57.8807 14 59 15.1193 59 16.5V39C59 40.6569 57.6569 42 56 42H54V45.0702Z"
        fill="#E7EAF2"></path>
    <path
        d="M54.5043 11.7622H14.5007C13.8376 11.7622 13.2016 12.0233 12.7327 12.488C12.2639 12.9528 12.0004 13.5831 12.0004 14.2403V24.1527H9.50022C8.83712 24.1527 8.20118 24.4137 7.7323 24.8785C7.26342 25.3432 7 25.9735 7 26.6308V49.7596C7 50.4168 7.26342 51.0472 7.7323 51.5119C8.20118 51.9766 8.83712 52.2377 9.50022 52.2377H49.5038C50.1669 52.2377 50.8028 51.9766 51.2717 51.5119C51.7406 51.0472 52.004 50.4168 52.004 49.7596V39.8472H54.5043C55.1674 39.8472 55.8033 39.5862 56.2722 39.1214C56.7411 38.6567 57.0045 38.0264 57.0045 37.3692V14.2403C57.0045 13.5831 56.7411 12.9528 56.2722 12.488C55.8033 12.0233 55.1674 11.7622 54.5043 11.7622ZM13.6673 16.7184H55.3377V20.8485H13.6673V16.7184ZM14.5007 13.4143H54.5043C54.7253 13.4143 54.9373 13.5013 55.0936 13.6562C55.2499 13.8111 55.3377 14.0212 55.3377 14.2403V15.0663H13.6673V14.2403C13.6673 14.0212 13.7551 13.8111 13.9114 13.6562C14.0677 13.5013 14.2796 13.4143 14.5007 13.4143ZM50.3372 49.7596C50.3372 49.9787 50.2494 50.1888 50.0931 50.3437C49.9368 50.4986 49.7248 50.5856 49.5038 50.5856H9.50022C9.27919 50.5856 9.06721 50.4986 8.91092 50.3437C8.75462 50.1888 8.66682 49.9787 8.66682 49.7596V26.6308C8.66682 26.4117 8.75462 26.2016 8.91092 26.0467C9.06721 25.8918 9.27919 25.8047 9.50022 25.8047H49.5038C49.7248 25.8047 49.9368 25.8918 50.0931 26.0467C50.2494 26.2016 50.3372 26.4117 50.3372 26.6308V49.7596ZM54.5043 38.1952H52.004V26.6308C52.004 25.9735 51.7406 25.3432 51.2717 24.8785C50.8028 24.4137 50.1669 24.1527 49.5038 24.1527H13.6673V22.5006H55.3377V37.3692C55.3377 37.5882 55.2499 37.7983 55.0936 37.9532C54.9373 38.1082 54.7253 38.1952 54.5043 38.1952Z"
        fill="#8E98A3"></path>
    <path
        d="M16.1675 39.0213C17.0335 39.0195 17.8879 38.8247 18.6677 38.4513C19.4468 38.8266 20.3017 39.0215 21.1679 39.0213C22.7152 39.0213 24.199 38.4121 25.2931 37.3277C26.3871 36.2433 27.0018 34.7726 27.0018 33.239C27.0018 31.7055 26.3871 30.2348 25.2931 29.1504C24.199 28.066 22.7152 27.4568 21.1679 27.4568C20.3017 27.4566 19.4468 27.6515 18.6677 28.0268C17.8879 27.6534 17.0335 27.4586 16.1675 27.4568C14.6202 27.4568 13.1364 28.066 12.0423 29.1504C10.9483 30.2348 10.3336 31.7055 10.3336 33.239C10.3336 34.7726 10.9483 36.2433 12.0423 37.3277C13.1364 38.4121 14.6202 39.0213 16.1675 39.0213ZM25.335 33.239C25.335 33.7814 25.2272 34.3185 25.0178 34.8196C24.8084 35.3207 24.5014 35.776 24.1145 36.1595C23.7275 36.543 23.2682 36.8472 22.7626 37.0548C22.257 37.2624 21.7152 37.3692 21.1679 37.3692C20.8877 37.368 20.6083 37.3375 20.3345 37.2783C21.3984 36.1982 21.994 34.7486 21.994 33.239C21.994 31.7295 21.3984 30.2799 20.3345 29.1998C20.6083 29.1406 20.8877 29.1101 21.1679 29.1089C21.7152 29.1089 22.257 29.2157 22.7626 29.4233C23.2682 29.6308 23.7275 29.9351 24.1145 30.3186C24.5014 30.7021 24.8084 31.1574 25.0178 31.6585C25.2272 32.1596 25.335 32.6967 25.335 33.239ZM16.1675 29.1089C16.9916 29.1089 17.7973 29.3511 18.4826 29.805C19.1678 30.2588 19.7019 30.9038 20.0173 31.6585C20.3327 32.4132 20.4152 33.2436 20.2545 34.0448C20.0937 34.846 19.6968 35.5819 19.114 36.1595C18.5313 36.7371 17.7888 37.1305 16.9804 37.2898C16.1721 37.4492 15.3343 37.3674 14.5728 37.0548C13.8114 36.7422 13.1606 36.2128 12.7027 35.5336C12.2448 34.8544 12.0004 34.0559 12.0004 33.239C12.0004 32.1437 12.4395 31.0931 13.2209 30.3186C14.0024 29.544 15.0623 29.1089 16.1675 29.1089Z"
        fill="#8E98A3"></path>
    <path
        d="M18.6671 40.6733H12.8339C12.6129 40.6733 12.4009 40.7604 12.2447 40.9153C12.0884 41.0701 12.0006 41.2802 12.0006 41.4993C12.0006 41.7183 12.0884 41.9284 12.2447 42.0833C12.4009 42.2382 12.6129 42.3252 12.8339 42.3252H18.6671C18.8881 42.3252 19.1001 42.2382 19.2564 42.0833C19.4127 41.9284 19.5004 41.7183 19.5004 41.4993C19.5004 41.2802 19.4127 41.0701 19.2564 40.9153C19.1001 40.7604 18.8881 40.6733 18.6671 40.6733Z"
        fill="#8E98A3"></path>
    <path
        d="M27.8345 40.6733H22.0012C21.7802 40.6733 21.5683 40.7604 21.412 40.9153C21.2557 41.0701 21.1679 41.2802 21.1679 41.4993C21.1679 41.7183 21.2557 41.9284 21.412 42.0833C21.5683 42.2382 21.7802 42.3252 22.0012 42.3252H27.8345C28.0555 42.3252 28.2674 42.2382 28.4237 42.0833C28.58 41.9284 28.6678 41.7183 28.6678 41.4993C28.6678 41.2802 28.58 41.0701 28.4237 40.9153C28.2674 40.7604 28.0555 40.6733 27.8345 40.6733Z"
        fill="#8E98A3"></path>
    <path
        d="M37.0019 40.6733H31.1687C30.9477 40.6733 30.7357 40.7604 30.5794 40.9153C30.4232 41.0701 30.3354 41.2802 30.3354 41.4993C30.3354 41.7183 30.4232 41.9284 30.5794 42.0833C30.7357 42.2382 30.9477 42.3252 31.1687 42.3252H37.0019C37.2229 42.3252 37.4349 42.2382 37.5912 42.0833C37.7474 41.9284 37.8352 41.7183 37.8352 41.4993C37.8352 41.2802 37.7474 41.0701 37.5912 40.9153C37.4349 40.7604 37.2229 40.6733 37.0019 40.6733Z"
        fill="#8E98A3"></path>
    <path
        d="M46.1695 40.6733H40.3363C40.1153 40.6733 39.9033 40.7604 39.7471 40.9153C39.5908 41.0701 39.503 41.2802 39.503 41.4993C39.503 41.7183 39.5908 41.9284 39.7471 42.0833C39.9033 42.2382 40.1153 42.3252 40.3363 42.3252H46.1695C46.3905 42.3252 46.6025 42.2382 46.7588 42.0833C46.9151 41.9284 47.0029 41.7183 47.0029 41.4993C47.0029 41.2802 46.9151 41.0701 46.7588 40.9153C46.6025 40.7604 46.3905 40.6733 46.1695 40.6733Z"
        fill="#8E98A3"></path>
    <path
        d="M37.0022 43.9775H33.6689C33.4479 43.9775 33.2359 44.0645 33.0797 44.2194C32.9234 44.3743 32.8356 44.5844 32.8356 44.8034C32.8356 45.0225 32.9234 45.2325 33.0797 45.3874C33.2359 45.5423 33.4479 45.6293 33.6689 45.6293H37.0022C37.2232 45.6293 37.4352 45.5423 37.5914 45.3874C37.7477 45.2325 37.8355 45.0225 37.8355 44.8034C37.8355 44.5844 37.7477 44.3743 37.5914 44.2194C37.4352 44.0645 37.2232 43.9775 37.0022 43.9775Z"
        fill="#8E98A3"></path>
    <path
        d="M46.1697 43.9775H42.8364C42.6154 43.9775 42.4034 44.0645 42.2471 44.2194C42.0909 44.3743 42.0031 44.5844 42.0031 44.8034C42.0031 45.0225 42.0909 45.2325 42.2471 45.3874C42.4034 45.5423 42.6154 45.6293 42.8364 45.6293H46.1697C46.3907 45.6293 46.6026 45.5423 46.7589 45.3874C46.9152 45.2325 47.003 45.0225 47.003 44.8034C47.003 44.5844 46.9152 44.3743 46.7589 44.2194C46.6026 44.0645 46.3907 43.9775 46.1697 43.9775Z"
        fill="#8E98A3"></path>
    <circle cx="48" cy="50" r="8" fill="white"></circle>
    <path
        d="M51 51.4974C51 52.0688 50.8028 52.5556 50.4085 52.9577C50.0211 53.3598 49.4965 53.6243 48.8345 53.7513V54.2698C48.8345 54.4885 48.7641 54.6649 48.6232 54.7989C48.4894 54.933 48.3134 55 48.0951 55C47.8768 55 47.6972 54.933 47.5563 54.7989C47.4225 54.6649 47.3556 54.4885 47.3556 54.2698V53.7937C46.5739 53.6949 45.9049 53.4656 45.3486 53.1058C45.2218 53.0282 45.1303 52.94 45.0739 52.8413C45.0246 52.7425 45 52.612 45 52.4497C45 52.2381 45.0599 52.0547 45.1796 51.8995C45.3063 51.7443 45.4542 51.6667 45.6232 51.6667C45.7077 51.6667 45.7923 51.6808 45.8768 51.709C45.9613 51.7372 46.0704 51.7901 46.2042 51.8677C46.5141 52.037 46.8028 52.157 47.0704 52.2275C47.338 52.2981 47.6232 52.3333 47.9261 52.3333C48.2993 52.3333 48.581 52.2734 48.7711 52.1534C48.9683 52.0265 49.0669 51.8395 49.0669 51.5926C49.0669 51.4444 49.007 51.3245 48.8873 51.2328C48.7746 51.134 48.6303 51.0564 48.4542 51C48.2852 50.9436 48.0352 50.873 47.7042 50.7884C47.1761 50.6543 46.743 50.5203 46.4049 50.3862C46.0669 50.2451 45.7746 50.03 45.5282 49.7407C45.2817 49.4444 45.1585 49.0494 45.1585 48.5556C45.1585 47.9912 45.3556 47.5009 45.75 47.0847C46.1444 46.6684 46.6655 46.3933 47.3134 46.2593V45.7302C47.3134 45.5185 47.3838 45.3457 47.5246 45.2116C47.6655 45.0705 47.8415 45 48.0528 45C48.2711 45 48.4472 45.067 48.581 45.2011C48.7218 45.3351 48.7923 45.5115 48.7923 45.7302V46.2275C49.3768 46.3192 49.9472 46.5414 50.5035 46.8942C50.6303 46.9788 50.7183 47.0741 50.7676 47.1799C50.8239 47.2787 50.8521 47.4021 50.8521 47.5503C50.8521 47.7619 50.7887 47.9453 50.662 48.1005C50.5352 48.2557 50.3873 48.3333 50.2183 48.3333C50.1338 48.3333 50.0528 48.3192 49.9754 48.291C49.8979 48.2628 49.7852 48.2099 49.6373 48.1323C49.588 48.1041 49.4789 48.0476 49.3099 47.963C49.1408 47.8713 48.9577 47.8007 48.7606 47.7513C48.5704 47.6949 48.3662 47.6667 48.1479 47.6667C47.831 47.6667 47.5739 47.7372 47.3768 47.8783C47.1796 48.0123 47.081 48.1958 47.081 48.4286C47.081 48.6543 47.1937 48.8236 47.419 48.9365C47.6444 49.0494 48 49.1623 48.4859 49.2751C49.007 49.3951 49.4331 49.522 49.7641 49.6561C50.1021 49.7901 50.3908 50.0053 50.6303 50.3016C50.8768 50.5979 51 50.9965 51 51.4974Z"
        fill="#377dff"></path>
    <path fill-rule="evenodd" clip-rule="evenodd"
        d="M48 58C52.4183 58 56 54.4183 56 50C56 45.5817 52.4183 42 48 42C43.5817 42 40 45.5817 40 50C40 54.4183 43.5817 58 48 58ZM48 56C51.3137 56 54 53.3137 54 50C54 46.6863 51.3137 44 48 44C44.6863 44 42 46.6863 42 50C42 53.3137 44.6863 56 48 56Z"
        fill="#377dff"></path>
</svg>