<?xml version="1.0" encoding="iso-8859-1"?>
<!-- Generator: Adobe Illustrator 19.0.0, SVG Export Plug-In . SVG Version: 6.00 Build 0)  -->
<svg version="1.1" id="Layer_1" xmlns="http://www.w3.org/2000/svg" xmlns:xlink="http://www.w3.org/1999/xlink" x="0px" y="0px"
	 viewBox="0 0 512 512" style="enable-background:new 0 0 512 512;" xml:space="preserve">
<g>
	<g>
		<circle cx="256" cy="81.455" r="11.636"/>
	</g>
</g>
<g>
	<g>
		<path d="M337.455,302.545h-69.818c-6.435,0-11.636,5.213-11.636,11.636s5.201,11.636,11.636,11.636h69.818
			c6.435,0,11.636-5.213,11.636-11.636S343.889,302.545,337.455,302.545z"/>
	</g>
</g>
<g>
	<g>
		<path d="M442.182,302.545H384c-6.435,0-11.636,5.213-11.636,11.636s5.201,11.636,11.636,11.636h58.182
			c6.435,0,11.636-5.213,11.636-11.636S448.617,302.545,442.182,302.545z"/>
	</g>
</g>
<g>
	<g>
		<path d="M372.364,256H267.636c-6.435,0-11.636,5.213-11.636,11.636s5.201,11.636,11.636,11.636h104.727
			c6.435,0,11.636-5.213,11.636-11.636S378.799,256,372.364,256z"/>
	</g>
</g>
<g>
	<g>
		<path d="M360.727,349.091h-93.091c-6.435,0-11.636,5.213-11.636,11.636s5.201,11.636,11.636,11.636h93.091
			c6.435,0,11.636-5.213,11.636-11.636S367.162,349.091,360.727,349.091z"/>
	</g>
</g>
<g>
	<g>
		<path d="M442.182,256h-23.273c-6.435,0-11.636,5.213-11.636,11.636s5.201,11.636,11.636,11.636h23.273
			c6.435,0,11.636-5.213,11.636-11.636S448.617,256,442.182,256z"/>
	</g>
</g>
<g>
	<g>
		<path d="M151.273,221.091H128c-19.247,0-34.909,15.663-34.909,34.909v23.273c0,25.67,20.876,46.545,46.545,46.545
			c25.67,0,46.545-20.876,46.545-46.545V256C186.182,236.753,170.519,221.091,151.273,221.091z M162.909,279.273
			c0,12.835-10.438,23.273-23.273,23.273s-23.273-10.438-23.273-23.273V256c0-6.412,5.225-11.636,11.636-11.636h23.273
			c6.412,0,11.636,5.225,11.636,11.636V279.273z"/>
	</g>
</g>
<g>
	<g>
		<path d="M477.091,116.364h-128c-6.435,0-11.636,5.213-11.636,11.636s5.201,11.636,11.636,11.636h128
			c6.423,0,11.636,5.225,11.636,11.636v302.545c0,6.412-5.213,11.636-11.636,11.636H34.909c-6.412,0-11.636-5.225-11.636-11.636
			V151.273c0-6.412,5.225-11.636,11.636-11.636h128c6.423,0,11.636-5.213,11.636-11.636s-5.213-11.636-11.636-11.636h-128
			C15.663,116.364,0,132.026,0,151.273v302.545c0,19.247,15.663,34.909,34.909,34.909h442.182c19.247,0,34.909-15.663,34.909-34.909
			V151.273C512,132.026,496.337,116.364,477.091,116.364z"/>
	</g>
</g>
<g>
	<g>
		<path d="M162.909,337.455h-46.545c-32.081,0-58.182,26.1-58.182,58.182v23.273c0,6.423,5.213,11.636,11.636,11.636h139.636
			c6.423,0,11.636-5.213,11.636-11.636v-23.273C221.091,363.555,194.991,337.455,162.909,337.455z M197.818,407.273H81.455v-11.636
			c0-19.247,15.663-34.909,34.909-34.909h46.545c19.247,0,34.909,15.663,34.909,34.909V407.273z"/>
	</g>
</g>
<g>
	<g>
		<path d="M337.455,162.909H221.091V58.182c0-6.412,5.225-11.636,11.636-11.636h46.545c6.423,0,11.636,5.225,11.636,11.636V128
			c0,6.423,5.201,11.636,11.636,11.636c6.435,0,11.636-5.213,11.636-11.636V58.182c0-19.247-15.663-34.909-34.909-34.909h-46.545
			c-19.247,0-34.909,15.663-34.909,34.909v104.727h-23.273c-6.423,0-11.636,5.213-11.636,11.636s5.213,11.636,11.636,11.636h162.909
			c6.435,0,11.636-5.213,11.636-11.636S343.889,162.909,337.455,162.909z"/>
	</g>
</g>
<g>
</g>
<g>
</g>
<g>
</g>
<g>
</g>
<g>
</g>
<g>
</g>
<g>
</g>
<g>
</g>
<g>
</g>
<g>
</g>
<g>
</g>
<g>
</g>
<g>
</g>
<g>
</g>
<g>
</g>
</svg>
