<svg width="64" height="64" viewBox="0 0 64 64" fill="none" class="">
    <path fill-rule="evenodd" clip-rule="evenodd"
        d="M35 12C35 10.8954 34.1046 9.99998 33 9.99998H32V21H35V12ZM56 44.0619C59.9463 44.554 63 47.9204 63 52C63 56.4183 59.4183 60 55 60C51.6426 60 48.7683 57.9318 47.5815 55H20.9155C19.1067 55 17.4306 54.051 16.5 52.5L15.5 51L19 52.5H47.0154C47.0052 52.3346 47 52.1679 47 52C47 47.9204 50.0537 44.554 54 44.0619V23C55.1046 23 56 23.8954 56 25V44.0619ZM10 27H16V29H12C10.8954 29 10 28.1046 10 27Z"
        fill="#E7EAF2"></path>
    <path
        d="M55.25 47H53.975V23.225C53.975 21.65 52.7 20.3 51.05 20.3H32.75V10.25C32.75 9.05 31.775 8 30.5 8H10.25C8.975 8 8 8.975 8 10.25V25.1C8 26.3 8.975 27.35 10.25 27.35H16.1V47.075H14.75C14.375 47.075 14 47.375 14 47.825C14 50.45 16.25 52.7 18.95 52.7H51.05C53.75 52.7 56 50.45 56 47.75C56 47.375 55.7 47 55.25 47ZM9.425 25.1V10.25C9.425 9.8 9.8 9.5 10.175 9.5H30.5C30.95 9.5 31.25 9.875 31.25 10.25V25.1C31.25 25.55 30.875 25.85 30.5 25.85H26.375C26 25.85 25.625 26.15 25.625 26.6V31.25L19.1 26C18.95 25.925 18.8 25.85 18.65 25.85H10.25C9.8 25.85 9.425 25.55 9.425 25.1ZM17.525 27.35H18.425L24.725 32.45C25.025 32.675 25.325 32.75 25.625 32.75C26.45 32.75 27.125 32.075 27.125 31.25V27.35H30.5C31.7 27.35 32.75 26.375 32.75 25.1V21.725H51.05C51.875 21.725 52.475 22.4 52.475 23.15V47H17.525V27.35ZM51.05 51.275H18.95C17.3 51.275 15.875 50.075 15.575 48.5H16.775H53.225H54.5C54.125 50.075 52.7 51.275 51.05 51.275Z"
        fill="#8E98A3"></path>
    <path
        d="M45.95 39.1999H43.775V38.3749C45.95 36.5749 47.375 33.1249 47.375 30.6499C47.375 26.9749 44.375 24.0499 40.775 24.0499C37.175 24.0499 34.175 26.9749 34.175 30.6499C34.175 30.6499 34.175 30.6499 34.175 30.7249C34.175 33.1999 35.6 36.6499 37.775 38.4499V39.2749H35.6C33.2 39.2749 31.25 41.2249 31.25 43.6249V45.25C31.25 45.625 31.55 46 32 46H49.625C50 46 50.375 45.7 50.375 45.25V43.6249C50.3 41.1499 48.35 39.1999 45.95 39.1999ZM40.775 25.4749C43.4 25.4749 45.575 27.4249 45.875 29.9749C44.75 29.5999 42.05 28.0249 39.95 26.4499C39.725 26.2999 39.5 26.2999 39.2 26.3749C38.975 26.4499 38.825 26.6749 38.75 26.9749L38.525 28.8499L37.85 28.0999C37.55 27.7999 37.175 27.7999 36.8 28.0249L35.825 28.8499C36.725 26.8999 38.6 25.4749 40.775 25.4749ZM35.6 31.0249L37.25 29.5999C38.375 30.6499 38.6 31.4749 39.275 31.2499C39.575 31.1749 39.725 30.9499 39.8 30.6499L40.025 28.3999C43.1 30.4999 44.825 31.3249 45.8 31.4749C45.425 34.3249 43.25 38.1499 40.7 38.1499C38.075 38.0749 35.75 33.8749 35.6 31.0249ZM42.35 39.2749V39.6499L40.775 41.2249L39.2 39.6499V39.2749C40.25 39.6499 41.225 39.6499 42.35 39.2749ZM48.875 44.425H46.475V43.3249C46.475 42.9499 46.175 42.5749 45.725 42.5749C45.275 42.5749 44.975 42.8749 44.975 43.3249V44.425H36.575V43.3249C36.575 42.9499 36.275 42.5749 35.825 42.5749C35.45 42.5749 35.075 42.8749 35.075 43.3249V44.425H32.675V43.4749C32.675 41.8999 33.95 40.5499 35.6 40.5499H38.225C39.8 42.0499 40.55 43.3999 41.3 42.6499L43.4 40.5499H46.025C47.6 40.5499 48.95 41.8249 48.95 43.4749V44.425H48.875Z"
        fill="#8E98A3"></path>
    <path
        d="M12.35 16.625H28.325C28.7 16.625 29.075 16.325 29.075 15.875C29.075 15.5 28.775 15.125 28.325 15.125H12.35C11.975 15.125 11.6 15.425 11.6 15.875C11.6 16.325 11.975 16.625 12.35 16.625Z"
        fill="#8E98A3"></path>
    <path
        d="M29.075 19.4C29.075 19.025 28.775 18.65 28.325 18.65H12.35C11.975 18.65 11.6 18.95 11.6 19.4C11.6 19.775 11.9 20.15 12.35 20.15H28.325C28.775 20.15 29.075 19.85 29.075 19.4Z"
        fill="#8E98A3"></path>
    <path
        d="M25.4 22.9249C25.4 22.5499 25.1 22.1749 24.65 22.1749H16.1C15.725 22.1749 15.35 22.4749 15.35 22.9249C15.35 23.2999 15.65 23.6749 16.1 23.6749H24.65C25.025 23.6749 25.4 23.3749 25.4 22.9249Z"
        fill="#8E98A3"></path>
    <path
        d="M16.1 13.1H24.65C25.025 13.1 25.4 12.8 25.4 12.35C25.4 11.9 25.1 11.6 24.65 11.6H16.1C15.725 11.6 15.35 11.9 15.35 12.35C15.35 12.8 15.65 13.1 16.1 13.1Z"
        fill="#8E98A3"></path>
    <circle cx="53" cy="50" r="8" fill="white"></circle>
    <path fill-rule="evenodd" clip-rule="evenodd"
        d="M53 58C57.4183 58 61 54.4183 61 50C61 45.5817 57.4183 42 53 42C48.5817 42 45 45.5817 45 50C45 54.4183 48.5817 58 53 58ZM53 56C56.3137 56 59 53.3137 59 50C59 46.6863 56.3137 44 53 44C49.6863 44 47 46.6863 47 50C47 53.3137 49.6863 56 53 56ZM49 48C49 47.4477 49.4477 47 50 47H54C54.5523 47 55 47.4477 55 48V48.8L57 48V50V52L55 51.2V52C55 52.5522 54.5523 53 54 53H50C49.4477 53 49 52.5522 49 52V48Z"
        fill="#377dff"></path>
</svg>