<svg width="64" height="64" viewBox="0 0 64 64" fill="none" class="d-none d-md-inline flex-shrink-0">
    <path fill-rule="evenodd" clip-rule="evenodd"
        d="M14 56V57C14 57.5523 14.4477 58 15 58H42.7084C44.1186 59.2447 45.9711 60 48 60C50.0673 60 51.9514 59.2159 53.3712 57.9288C53.6249 57.8274 53.8274 57.6249 53.9288 57.3712C55.2159 55.9514 56 54.0673 56 52C56 49.9711 55.2447 48.1186 54 46.7084V17V9C54 8.44772 53.5523 8 53 8H52V17V45.0703C50.8233 44.3896 49.4571 44 48 44C43.5817 44 40 47.5817 40 52C40 53.4571 40.3896 54.8233 41.0703 56H14Z"
        fill="#E7EAF2"></path>
    <path fill-rule="evenodd" clip-rule="evenodd"
        d="M10 7C10 6.44771 10.4477 6 11 6H41.5H51C51.5523 6 52 6.44772 52 7V44.7084C51.4281 44.0604 50.7528 43.5057 50 43.0703V19V8H39H12V54H39.0703C39.5057 54.7528 40.0604 55.4281 40.7084 56H11C10.4477 56 10 55.5523 10 55V7ZM51.3712 55.9288C51.6249 55.8274 51.8274 55.6249 51.9288 55.3712C51.7522 55.5661 51.5661 55.7522 51.3712 55.9288Z"
        fill="#377dff"></path>
    <path
        d="M24.537 38.9948C22.6672 37.188 21.3184 34.6746 20.9823 32.0365C20.5079 31.3074 20.1053 30.2051 19.8596 29.1042C19.4486 27.2624 19.5552 25.7025 20.6127 24.8202C20.6269 24.7611 20.642 24.7011 20.658 24.6403C20.6178 24.5938 20.5796 24.5441 20.5437 24.4912C19.5981 23.0961 19.314 21.7344 19.582 20.0007C19.5891 19.9549 19.5891 19.9549 19.5962 19.9081C19.7115 19.1498 19.7259 19.061 19.7965 18.7216C20.3409 16.104 21.8454 14.5302 24.8731 14.4548C25.9479 12.4141 27.8254 10.9659 29.8808 11.1261C35.2926 11.5479 39.3341 13.8298 41.4816 16.8168C42.4568 18.1732 42.6668 20.1377 42.4097 22.4553C42.3217 23.2494 42.1778 24.0422 42.0114 24.7113C41.9378 25.0073 41.8623 25.2676 41.7909 25.4696C41.775 25.5148 41.759 25.5578 41.7426 25.5994C41.824 25.7497 41.8934 25.9118 41.9494 26.0851C42.3598 27.3543 42.0205 29.1034 40.8652 31.5364C40.7195 34.4383 38.8724 37.4495 36.4087 39.4405C36.4892 39.5755 36.5503 39.7267 36.5869 39.8918C36.5757 39.8413 36.7855 40.8632 36.8631 41.18C36.9706 41.6186 37.0791 41.9337 37.1392 42.0296C37.4875 42.5854 37.44 43.3019 37.0214 43.8068C35.8759 45.1886 32.3861 48.4931 31.0422 48.8396C30.8161 48.8978 30.5797 48.9033 30.3512 48.8554C28.7356 48.5171 24.9396 44.6833 24.0108 43.3503C23.723 42.9372 23.6584 42.4085 23.8382 41.9383C23.906 41.761 23.9927 41.4031 24.0798 40.9344C24.1205 40.7156 24.1598 40.4821 24.2016 40.216C24.2251 40.0664 24.2904 39.6367 24.2932 39.6188C24.3298 39.3829 24.4157 39.1731 24.537 38.9948ZM30.6796 40.2145C34.6831 40.2145 39.3544 35.4062 39.3544 31.1694C41.9028 25.9797 39.7406 25.8284 39.7406 25.8284C37.9535 22.5723 37.179 21.6345 31.5681 21.9183C25.9571 22.2022 25.5166 20.606 25.5166 20.606C22.5626 21.7535 21.9741 25.7686 21.9741 25.7686C20.1329 26.4818 21.9741 31.1694 22.4499 31.4621C22.8178 35.8944 26.6761 40.2145 30.6796 40.2145ZM26.6052 20.6056C27.4483 21.0464 29.0291 21.2858 31.5297 21.1593C36.8532 20.89 38.2081 21.5448 40.2475 25.1758C40.4058 25.2402 41.8266 19.9004 40.2475 17.7041C38.8797 15.8017 35.6083 13.0971 29.7627 12.6415C27.66 12.4776 25.688 15.0743 25.4723 17.7041C25.2567 20.3339 26.4117 20.5044 26.6052 20.6056ZM21.802 23.6384C21.9355 23.3089 22.0884 22.9842 22.2622 22.6689C22.9245 21.4676 23.8148 20.5395 24.9693 20.0125C24.724 19.419 24.6334 18.6371 24.715 17.642C24.7618 17.0711 24.8789 16.5086 25.0546 15.9721C21.5793 15.9935 21.3612 18.4405 21.0842 20.2329C20.8752 21.585 21.0714 22.5605 21.802 23.6384ZM25.7953 39.8516C25.7031 40.4464 25.5126 41.8153 25.2579 42.4813C25.286 42.5216 29.218 47.0651 30.6627 47.3677C31.8364 47.0651 35.6789 43.0446 35.8512 42.8367C35.4645 42.2196 35.2352 40.8163 35.1031 40.2213C33.7053 41.1595 32.1627 41.7345 30.6796 41.7345C28.9539 41.7345 27.2497 41.019 25.7953 39.8516Z"
        fill="#377dff"></path>
    <path fill-rule="evenodd" clip-rule="evenodd"
        d="M54 50C54 54.4183 50.4183 58 46 58C41.5817 58 38 54.4183 38 50C38 45.5817 41.5817 42 46 42C50.4183 42 54 45.5817 54 50ZM52 50C52 53.3137 49.3137 56 46 56C42.6863 56 40 53.3137 40 50C40 46.6863 42.6863 44 46 44C49.3137 44 52 46.6863 52 50ZM50.0709 47.8301C50.334 47.4538 50.2422 46.9355 49.8658 46.6724C49.4895 46.4093 48.9711 46.5011 48.7081 46.8774L45.1322 51.9924L43.1578 50.018C42.8331 49.6933 42.3067 49.6933 41.982 50.018C41.6573 50.3427 41.6573 50.8691 41.982 51.1938L44.6576 53.8694C44.8314 54.0432 45.0733 54.1312 45.3183 54.1097C45.5632 54.0882 45.786 53.9593 45.9269 53.7578L50.0709 47.8301Z"
        fill="#377dff"></path>
    <circle cx="46" cy="50.4814" r="8" fill="white"></circle>
    <path fill-rule="evenodd" clip-rule="evenodd"
        d="M54 50C54 54.4183 50.4183 58 46 58C41.5817 58 38 54.4183 38 50C38 45.5817 41.5817 42 46 42C50.4183 42 54 45.5817 54 50ZM52 50C52 53.3137 49.3137 56 46 56C42.6863 56 40 53.3137 40 50C40 46.6863 42.6863 44 46 44C49.3137 44 52 46.6863 52 50ZM49.5587 48.139L46.7142 45.2945L46.7111 45.2914C46.5185 45.0988 46.2663 45.002 46.0132 45.0001C45.7539 44.9973 45.494 45.0941 45.2968 45.2913L42.4492 48.1389C42.0587 48.5295 42.0619 49.1658 42.4524 49.5564C42.8429 49.9469 43.4793 49.9501 43.8698 49.5596L45.0161 48.4133L45 54C45 54.5523 45.4522 55 46.0045 55C46.5568 55 47.0091 54.5523 47.0091 54L47.025 48.4465L48.1381 49.5596C48.5286 49.9501 49.165 49.9469 49.5555 49.5564C49.946 49.1659 49.9492 48.5295 49.5587 48.139Z"
        fill="#00C9A7"></path>
</svg>