<svg width="59" height="78" viewBox="0 0 59 78" fill="none" xmlns="http://www.w3.org/2000/svg">
<path d="M13.1168 65.2185C13.1168 65.3403 15.1278 64.3958 18.4336 59.0942C17.4129 60.054 14.0004 62.8267 13.1168 65.2185ZM27.4067 31.8704C26.9649 31.8704 26.9497 36.5778 27.7114 39.0153C28.5645 37.4919 28.6864 31.8704 27.4067 31.8704ZM39.6247 53.5184C45.2766 55.9255 46.145 54.8895 46.145 54.8895C46.7696 54.4782 45.7641 53.0766 39.6247 53.5184ZM27.4524 46.2059C26.2793 49.2833 24.8168 52.8024 23.1258 55.7579C25.9137 54.6915 29.0672 53.1376 32.7083 52.4216C30.7735 50.9591 28.9149 48.8567 27.4524 46.2059ZM41.4376 19.5C40.7911 19.5 40.1711 19.2432 39.714 18.7861C39.2569 18.329 39.0001 17.709 39.0001 17.0625V1.14841e-05H3.65627C3.17732 -0.00119039 2.70283 0.0919554 2.25988 0.27413C1.81693 0.456306 1.4142 0.723942 1.07469 1.06176C0.735171 1.39958 0.46552 1.80096 0.281126 2.24299C0.0967333 2.68502 0.00121035 3.15904 1.14841e-05 3.63799V74.3439C-0.00119039 74.8228 0.0919554 75.2973 0.27413 75.7402C0.456306 76.1832 0.723942 76.5859 1.06176 76.9254C1.39958 77.265 1.80096 77.5346 2.24299 77.719C2.68502 77.9034 3.15904 77.9989 3.63798 78.0001H54.8438C55.3228 78.0013 55.7973 77.9082 56.2402 77.726C56.6832 77.5438 57.0859 77.2762 57.4254 76.9384C57.7649 76.6005 58.0346 76.1992 58.219 75.7571C58.4034 75.3151 58.4989 74.8411 58.5001 74.3621V19.5H41.4376ZM44.7739 58.2563C42.1993 58.2563 38.3297 57.0833 35.0239 55.2856C31.2305 55.9102 26.9192 57.5251 22.9887 58.82C19.1192 65.4927 16.4075 68.2349 13.6805 68.2349C12.8426 68.2349 11.2582 67.7626 10.4051 66.7114C7.49533 63.1313 14.5793 58.4696 18.7078 56.352C18.7231 56.352 18.7231 56.3368 18.7383 56.3368C20.5817 53.1071 23.1868 47.4704 24.954 43.2657C23.659 38.2536 22.9582 34.3231 23.72 31.5352C24.5426 28.534 30.286 28.0922 31.002 32.5712C31.8247 35.2524 30.743 39.5333 30.0575 42.3516C31.4895 46.1298 33.5157 48.6891 36.5626 50.5477C39.5028 50.1669 45.6575 49.5727 47.7751 51.6446C49.527 53.3813 49.2223 58.2563 44.7739 58.2563Z" fill="#0056F5" fill-opacity="0.24"/>
<path d="M57.4346 15.9961L42.5201 1.06642C42.1797 0.72718 41.7758 0.45838 41.3314 0.275396C40.887 0.0924117 40.4109 -0.00116752 39.9303 1.09942e-05H39.001V17.0625C39.001 17.709 39.2578 18.329 39.7149 18.7861C40.172 19.2432 40.792 19.5 41.4385 19.5H58.501V18.5707C58.501 18.0926 58.4068 17.6191 58.2239 17.1774C58.0409 16.7356 57.7727 16.3342 57.4346 15.9961ZM36.5635 50.5477C33.5166 48.6891 31.4904 46.1298 30.0584 42.3516C30.7439 39.5333 31.8256 35.2524 31.0029 32.5711C30.2869 28.0922 24.5435 28.534 23.7209 31.5352C22.9592 34.3231 23.6599 38.2536 24.9549 43.2657C23.1877 47.4704 20.5826 53.1071 18.7392 56.3368C18.724 56.3368 18.724 56.352 18.7088 56.352C14.5802 58.4696 7.49625 63.1313 10.406 66.7114C11.2591 67.7626 12.8435 68.2349 13.6814 68.2349C16.4084 68.2349 19.1201 65.4927 22.9896 58.82C26.9201 57.5251 31.2314 55.9102 35.0248 55.2856C38.3307 57.0833 42.2002 58.2563 44.7748 58.2563C49.2233 58.2563 49.5279 53.3813 47.776 51.6446C45.6584 49.5727 39.5037 50.1669 36.5635 50.5477ZM13.1177 65.2185C14.0013 62.8267 17.4138 60.054 18.4345 59.0942C15.1287 64.3958 13.1177 65.3403 13.1177 65.2185ZM27.4076 31.8704C28.6873 31.8704 28.5654 37.4919 27.7123 39.0153C26.9506 36.5778 26.9658 31.8704 27.4076 31.8704ZM23.1267 55.7579C24.8178 52.8024 26.2803 49.2833 27.4533 46.2059C28.9158 48.8567 30.7744 50.9591 32.7092 52.4216C29.0682 53.1376 25.9146 54.6915 23.1267 55.7579ZM46.1459 54.8895C46.1459 54.8895 45.2775 55.9255 39.6256 53.5184C45.765 53.0766 46.7705 54.4782 46.1459 54.8895Z" fill="#0056F5"/>
</svg>
