<svg width="64" height="64" viewBox="0 0 64 64" fill="none" class="">
    <path fill-rule="evenodd" clip-rule="evenodd"
        d="M14 56V57C14 57.5523 14.4477 58 15 58H42.7084C44.1186 59.2447 45.9711 60 48 60C50.0673 60 51.9514 59.2159 53.3712 57.9288C53.6249 57.8274 53.8274 57.6249 53.9288 57.3712C55.2159 55.9514 56 54.0673 56 52C56 49.9711 55.2447 48.1186 54 46.7084V17L45.5 8H43.5L52 17V45.0703C50.8233 44.3896 49.4571 44 48 44C43.5817 44 40 47.5817 40 52C40 53.4571 40.3896 54.8233 41.0703 56H14Z"
        fill="#E7EAF2"></path>
    <path fill-rule="evenodd" clip-rule="evenodd"
        d="M11 6C10.4477 6 10 6.44771 10 7V55C10 55.5523 10.4477 56 11 56H40.7084C40.0604 55.4281 39.5057 54.7528 39.0703 54H12V8H39V18C39 18.5523 39.4477 19 40 19H50V43.0703C50.7528 43.5057 51.4281 44.0604 52 44.7084V17.1111L41.5 6H11ZM51.9288 55.3712C51.7522 55.5661 51.5661 55.7522 51.3712 55.9288C51.6249 55.8274 51.8274 55.6249 51.9288 55.3712ZM49 17L41 9V17H49ZM18 30C18 29.4477 18.4477 29 19 29H43C43.5523 29 44 29.4477 44 30C44 30.5523 43.5523 31 43 31H19C18.4477 31 18 30.5523 18 30ZM19 25C18.4477 25 18 25.4477 18 26C18 26.5523 18.4477 27 19 27H33C33.5523 27 34 26.5523 34 26C34 25.4477 33.5523 25 33 25H19ZM18 34C18 33.4477 18.4477 33 19 33H43C43.5523 33 44 33.4477 44 34C44 34.5523 43.5523 35 43 35H19C18.4477 35 18 34.5523 18 34ZM19 37C18.4477 37 18 37.4477 18 38C18 38.5523 18.4477 39 19 39H43C43.5523 39 44 38.5523 44 38C44 37.4477 43.5523 37 43 37H19Z"
        fill="#8E98A3"></path>
    <circle cx="46" cy="50.4814" r="8" fill="white"></circle>
    <path fill-rule="evenodd" clip-rule="evenodd"
        d="M54 50C54 54.4183 50.4183 58 46 58C41.5817 58 38 54.4183 38 50C38 45.5817 41.5817 42 46 42C50.4183 42 54 45.5817 54 50ZM52 50C52 53.3137 49.3137 56 46 56C42.6863 56 40 53.3137 40 50C40 46.6863 42.6863 44 46 44C49.3137 44 52 46.6863 52 50ZM49.5587 48.139L46.7142 45.2945L46.7111 45.2914C46.5185 45.0988 46.2663 45.002 46.0132 45.0001C45.7539 44.9973 45.494 45.0941 45.2968 45.2913L42.4492 48.1389C42.0587 48.5295 42.0619 49.1658 42.4524 49.5564C42.8429 49.9469 43.4793 49.9501 43.8698 49.5596L45.0161 48.4133L45 54C45 54.5523 45.4522 55 46.0045 55C46.5568 55 47.0091 54.5523 47.0091 54L47.025 48.4465L48.1381 49.5596C48.5286 49.9501 49.165 49.9469 49.5555 49.5564C49.946 49.1659 49.9492 48.5295 49.5587 48.139Z"
        fill="#377dff"></path>
</svg>