<svg width="64" height="64" viewBox="0 0 64 64" fill="none" class="">
    <path fill-rule="evenodd" clip-rule="evenodd"
        d="M34 8.48145L36.133 8.78616C37.0156 8.91225 37.8249 9.34736 38.4168 10.0141C39.4367 11.1628 40 12.6456 40 14.1818V17.4814H37V11.7972L34 8.48145ZM8 53.4814V54.4814C8 55.0337 8.44772 55.4814 9 55.4814H40.5815C41.7683 58.4133 44.6426 60.4814 48 60.4814C51.3574 60.4814 54.2317 58.4133 55.4185 55.4814H57C57.5523 55.4814 58 55.0337 58 54.4814V21.4814V20.4814C58 19.9292 57.5523 19.4814 57 19.4814H56V21.4814V52.4814C56 48.0632 52.4183 44.4814 48 44.4814C43.5817 44.4814 40 48.0632 40 52.4814C40 52.8201 40.021 53.1539 40.0619 53.4814H8ZM34 12.4814C34 12.5098 33.9994 12.5381 33.9982 12.5662C33.8423 12.5113 33.6747 12.4814 33.5 12.4814C32.6716 12.4814 32 13.153 32 13.9814C32 14.1561 32.0299 14.3238 32.0847 14.4797C32.0566 14.4809 32.0284 14.4814 32 14.4814C30.8954 14.4814 30 13.586 30 12.4814C30 11.3769 30.8954 10.4814 32 10.4814C33.1046 10.4814 34 11.3769 34 12.4814Z"
        fill="#E7EAF2"></path>
    <path
        d="M54.9528 17.3106H38.4462V13.6855C38.4462 10.1485 35.5688 7.27148 32.0318 7.27148C28.4952 7.27148 25.6178 10.1485 25.6178 13.6855V17.3106H7.04741C6.21797 17.3106 5.54297 18.0203 5.54297 18.8919V52.11C5.54297 52.9816 6.21797 53.6913 7.04741 53.6913H54.9528C55.7823 53.6913 56.4573 52.9816 56.4573 52.11V18.8919C56.4573 18.0203 55.7823 17.3106 54.9528 17.3106ZM27.1607 13.6855C27.1607 10.9998 29.3458 8.81434 32.0318 8.81434C34.7179 8.81434 36.9033 10.9998 36.9033 13.6855V18.0727C36.9033 18.076 36.9015 18.0787 36.9015 18.082C36.9015 18.0853 36.9033 18.0881 36.9033 18.0914V20.1357H27.1607V13.6855ZM7.08583 52.11L7.04741 18.8535H25.6178V20.1357H24.7839C24.3578 20.1357 24.0124 20.4807 24.0124 20.9071C24.0124 21.3335 24.3578 21.6785 24.7839 21.6785H26.3892H37.6748H39.2802C39.7062 21.6785 40.0516 21.3335 40.0516 20.9071C40.0516 20.4807 39.7062 20.1357 39.2802 20.1357H38.4462V18.8552L54.9144 18.8919L54.9528 52.1484L7.08583 52.11Z"
        fill="#8E98A3"></path>
    <path
        d="M28.0758 26.2607H11.4257C10.9997 26.2607 10.6543 26.6058 10.6543 27.0322V43.9705C10.6543 44.3969 10.9997 44.7419 11.4257 44.7419H14.7529H24.7487H28.0758C28.5019 44.7419 28.8473 44.3969 28.8473 43.9705V27.0322C28.8473 26.6058 28.5019 26.2607 28.0758 26.2607ZM15.5243 43.199V40.6263C15.5243 39.7879 16.1526 39.094 16.964 38.9878C18.7923 40.1781 20.7092 40.1789 22.5376 38.9878C23.349 39.094 23.9773 39.7879 23.9773 40.6263V43.199H15.5243ZM27.3044 43.199H25.5201V40.6263C25.5201 38.8643 24.085 37.4306 22.321 37.4306C22.1613 37.4306 22.0054 37.4804 21.8747 37.573C20.4252 38.6006 19.0756 38.6006 17.6269 37.573C17.4966 37.4804 17.3406 37.4306 17.1806 37.4306C15.4166 37.4306 13.9815 38.8643 13.9815 40.6263V43.199H12.1972V27.8036H27.3044V43.199Z"
        fill="#8E98A3"></path>
    <path
        d="M19.7506 37.6376C21.7198 37.6376 23.3218 36.0352 23.3218 34.066C23.3218 32.0967 21.7198 30.4951 19.7506 30.4951C17.7817 30.4951 16.1797 32.0967 16.1797 34.066C16.1797 36.0352 17.7817 37.6376 19.7506 37.6376ZM19.7506 32.038C20.8689 32.038 21.7789 32.948 21.7789 34.066C21.7789 35.1847 20.8689 36.0947 19.7506 36.0947C18.6322 36.0947 17.7225 35.1847 17.7225 34.066C17.7225 32.948 18.6322 32.038 19.7506 32.038Z"
        fill="#8E98A3"></path>
    <path
        d="M50.5744 26.8867H34.1171C33.6911 26.8867 33.3457 27.2318 33.3457 27.6581C33.3457 28.0845 33.6911 28.4296 34.1171 28.4296H50.5744C51.0004 28.4296 51.3458 28.0845 51.3458 27.6581C51.3458 27.2318 51.0004 26.8867 50.5744 26.8867Z"
        fill="#8E98A3"></path>
    <path
        d="M50.5744 32.7295H34.1171C33.6911 32.7295 33.3457 33.0745 33.3457 33.5009C33.3457 33.9273 33.6911 34.2723 34.1171 34.2723H50.5744C51.0004 34.2723 51.3458 33.9273 51.3458 33.5009C51.3458 33.0745 51.0004 32.7295 50.5744 32.7295Z"
        fill="#8E98A3"></path>
    <path
        d="M50.5744 38.5723H34.1171C33.6911 38.5723 33.3457 38.9173 33.3457 39.3437C33.3457 39.7701 33.6911 40.1151 34.1171 40.1151H50.5744C51.0004 40.1151 51.3458 39.7701 51.3458 39.3437C51.3458 38.9173 51.0004 38.5723 50.5744 38.5723Z"
        fill="#8E98A3"></path>
    <path
        d="M32.0317 10.0107C30.3924 10.0107 29.0586 11.3442 29.0586 12.9835C29.0586 14.6227 30.3924 15.9569 32.0317 15.9569C33.6713 15.9569 35.0051 14.6227 35.0051 12.9835C35.0051 11.3442 33.6713 10.0107 32.0317 10.0107ZM32.0317 14.4141C31.2429 14.4141 30.6015 13.7722 30.6015 12.9835C30.6015 12.1947 31.2429 11.5536 32.0317 11.5536C32.8204 11.5536 33.4623 12.1947 33.4623 12.9835C33.4623 13.7722 32.8204 14.4141 32.0317 14.4141Z"
        fill="#8E98A3"></path>
    <circle cx="46" cy="50.4814" r="8" fill="white"></circle>
    <path fill-rule="evenodd" clip-rule="evenodd" fill="#377dff"
        d="M46 58.4814C50.4183 58.4814 54 54.8997 54 50.4814C54 46.0632 50.4183 42.4814 46 42.4814C41.5817 42.4814 38 46.0632 38 50.4814C38 54.8997 41.5817 58.4814 46 58.4814ZM46 56.4814C49.3137 56.4814 52 53.7952 52 50.4814C52 47.1677 49.3137 44.4814 46 44.4814C42.6863 44.4814 40 47.1677 40 50.4814C40 53.7952 42.6863 56.4814 46 56.4814Z">
    </path>
    <rect x="45" y="46.4814" width="2" height="2" rx="1" fill="#377dff"></rect>
    <rect x="45" y="54.4814" width="5" height="2" rx="1" transform="rotate(-90 45 54.4814)" fill="#377dff"></rect>
</svg>