<?xml version="1.0" encoding="iso-8859-1"?>
<!-- Generator: Adobe Illustrator 18.0.0, SVG Export Plug-In . SVG Version: 6.00 Build 0)  -->
<!DOCTYPE svg PUBLIC "-//W3C//DTD SVG 1.1//EN" "http://www.w3.org/Graphics/SVG/1.1/DTD/svg11.dtd">
<svg version="1.1" id="Capa_1" xmlns="http://www.w3.org/2000/svg" xmlns:xlink="http://www.w3.org/1999/xlink" x="0px" y="0px"
	 viewBox="0 0 403.729 403.729" style="enable-background:new 0 0 403.729 403.729;" xml:space="preserve">
<g>
	<path d="M168.417,117.173c3.337,0,6.339-2.291,7.226-5.505c1.79-6.487-5.571-11.893-11.232-8.322
		c-2.766,1.745-4.082,5.178-3.216,8.332C162.076,114.889,165.086,117.173,168.417,117.173z"/>
	<path d="M229.262,150.059c-2.372,2.095-3.166,5.563-1.956,8.484c1.149,2.772,3.914,4.63,6.92,4.63c3.756,0,6.966-2.863,7.439-6.578
		C242.521,149.883,234.304,145.606,229.262,150.059z"/>
	<path d="M264.227,163.173c3.411,0,6.431-2.38,7.276-5.672c1.689-6.575-5.96-11.795-11.502-8.018
		c-2.666,1.817-3.898,5.278-2.947,8.371C258.015,160.974,260.949,163.173,264.227,163.173z"/>
	<path d="M382.798,64.648H187.829c-16.871-29.421-48.596-49.284-84.875-49.284c-53.908,0-97.766,43.857-97.766,97.766
		c0,40.419,24.655,75.187,59.715,90.056C26.914,218.35,0,255.514,0,298.85v82.015c0,4.142,3.357,7.5,7.5,7.5h190.908
		c4.143,0,7.5-3.358,7.5-7.5v-75.497h156.82c22.607,0,41-18.388,41-40.99v-178.8C403.729,74.037,394.339,64.648,382.798,64.648z
		 M246.119,79.648c-0.007,0.798,0.108,1.602,0.367,2.38c1.014,3.041,3.911,5.145,7.121,5.145c3.341,0,6.32-2.291,7.218-5.496
		c0.195-0.694,0.264-1.371,0.262-2.03h121.711c3.271,0,5.931,2.66,5.931,5.93v165.31H194.031c-2.003-3.789-4.235-7.438-6.679-10.93
		h182.946c4.143,0,7.5-3.358,7.5-7.5V98.078c0-4.142-3.357-7.5-7.5-7.5H198.09c-0.884-3.729-1.978-7.378-3.277-10.93H246.119z
		 M304.963,290.368h-99.406c-0.696-8.49-2.421-16.693-5.059-24.48h135.416C332.539,279.874,319.955,290.305,304.963,290.368z
		 M200.43,105.578h162.367v119.38h-63.702c-2.247-7.423-6.276-14.164-11.86-19.749c-2.554-2.559-5.356-4.778-8.341-6.661
		c12.106-8.158,20.086-21.992,20.086-37.657c0-25.021-20.356-45.377-45.377-45.377c-25.021,0-45.378,20.356-45.378,45.377
		c0,15.643,7.957,29.462,20.035,37.624c-9.519,5.965-16.791,15.241-20.162,26.442h-33.531c-9.585-9.292-20.963-16.743-33.562-21.772
		c35.06-14.87,59.715-49.638,59.715-90.056C200.72,110.589,200.622,108.07,200.43,105.578z M253.583,206.269
		c0.007,0,0.014,0,0.021,0c0.007,0,0.013,0,0.02,0c8.694,0.005,16.86,3.392,23.002,9.543c2.694,2.694,4.84,5.787,6.423,9.146
		h-58.927C229.34,213.756,240.624,206.277,253.583,206.269z M223.226,160.892c0-16.75,13.628-30.377,30.378-30.377
		s30.377,13.627,30.377,30.377c0,16.743-13.616,30.366-30.357,30.377c-0.007,0-0.013,0-0.02,0c-0.007,0-0.014,0-0.021,0
		C236.843,191.258,223.226,177.635,223.226,160.892z M20.188,113.129c0-45.637,37.129-82.766,82.766-82.766
		s82.766,37.128,82.766,82.766s-37.129,82.766-82.766,82.766S20.188,158.767,20.188,113.129z M15,298.85
		c0-48.499,39.456-87.955,87.954-87.955s87.954,39.456,87.954,87.955v30.328h-32.99v-35.5c0-4.142-3.357-7.5-7.5-7.5
		s-7.5,3.358-7.5,7.5v79.687H15V298.85z M157.918,373.365v-29.187h32.99v29.187H157.918z M362.729,290.368h-23.525
		c6.198-6.658,10.49-15.107,12.001-24.48h37.481C387.9,279.519,376.559,290.368,362.729,290.368z"/>
</g>
<g>
</g>
<g>
</g>
<g>
</g>
<g>
</g>
<g>
</g>
<g>
</g>
<g>
</g>
<g>
</g>
<g>
</g>
<g>
</g>
<g>
</g>
<g>
</g>
<g>
</g>
<g>
</g>
<g>
</g>
</svg>
